<?xml version="1.0" encoding="UTF-8" standalone="no"?>
<!-- Created with Inkscape (http://www.inkscape.org/) -->
<svg
   xmlns:dc="http://purl.org/dc/elements/1.1/"
   xmlns:cc="http://web.resource.org/cc/"
   xmlns:rdf="http://www.w3.org/1999/02/22-rdf-syntax-ns#"
   xmlns:svg="http://www.w3.org/2000/svg"
   xmlns="http://www.w3.org/2000/svg"
   xmlns:sodipodi="http://sodipodi.sourceforge.net/DTD/sodipodi-0.dtd"
   xmlns:inkscape="http://www.inkscape.org/namespaces/inkscape"
   id="svg2241"
   sodipodi:version="0.32"
   inkscape:version="0.45.1"
   width="20"
   height="20"
   version="1.0"
   sodipodi:docbase="C:\Documents and Settings\All Users\Documents\My Pictures\inkscape\airplane"
   sodipodi:docname="Aero-stub_img.svg"
   inkscape:output_extension="org.inkscape.output.svg.inkscape"
   inkscape:export-filename="C:\Documents and Settings\All Users\Documents\My Pictures\inkscape\airplane\airplane_outline.png"
   inkscape:export-xdpi="90"
   inkscape:export-ydpi="90">
  <metadata
     id="metadata2246">
    <rdf:RDF>
      <cc:Work
         rdf:about="">
        <dc:format>image/svg+xml</dc:format>
        <dc:type
           rdf:resource="http://purl.org/dc/dcmitype/StillImage" />
      </cc:Work>
    </rdf:RDF>
  </metadata>
  <defs
     id="defs2244">
    <filter
       inkscape:collect="always"
       id="filter8362">
      <feGaussianBlur
         inkscape:collect="always"
         stdDeviation="12.130105"
         id="feGaussianBlur8364" />
    </filter>
  </defs>
  <sodipodi:namedview
     inkscape:window-height="892"
     inkscape:window-width="1272"
     inkscape:pageshadow="2"
     inkscape:pageopacity="0.0"
     guidetolerance="10.0"
     gridtolerance="10.0"
     objecttolerance="10.0"
     borderopacity="1.0"
     bordercolor="#666666"
     pagecolor="#ffffff"
     id="base"
     showguides="true"
     inkscape:guide-bbox="true"
     inkscape:guide-points="true"
     inkscape:zoom="34.55"
     inkscape:cx="10"
     inkscape:cy="10"
     inkscape:window-x="0"
     inkscape:window-y="0"
     inkscape:current-layer="layer3"
     width="20px"
     height="20px" />
  <g
     inkscape:groupmode="layer"
     id="layer3"
     inkscape:label="outline"
     style="display:inline">
    <g
       id="g2279"
       transform="matrix(2.591382e-2,-2.591382e-2,2.591382e-2,2.591382e-2,-7.368015,7.5766984)">
      <g
         id="g10312"
         style="opacity:0.41148329">
        <path
           style="fill:#000000;fill-opacity:1;stroke:none;stroke-opacity:1;filter:url(#filter8362)"
           d="M 324.22538,121.84075 C 320.81739,121.91101 315.80842,122.65315 307.35038,124.122 C 298.18783,125.71321 279.15193,131.8517 277.13163,133.872 C 276.31775,134.68589 244.82286,377.26547 241.9324,379.8817 C 235.40732,385.78773 213.901,385.62023 155.60038,390.50721 C 125.76602,393.00803 82.515323,395.69472 81.424613,395.53795 C 79.604773,395.27637 78.892633,391.7228 72.768363,352.41295 C 69.544633,336.15581 65.68594,331.89474 58.174613,328.6942 C 51.625905,325.90383 19.900354,327.36537 11.341065,332.16295 C 1.775279,337.52468 1.775279,483.26997 11.341065,488.6317 C 19.900354,493.42929 51.625905,494.89082 58.174613,492.10045 C 65.68594,488.89992 69.544633,484.63884 72.768363,468.3817 C 78.892633,429.07185 79.604773,425.51828 81.424613,425.2567 C 82.515323,425.09991 125.76602,426.22514 155.60038,428.72596 C 213.901,433.61292 235.40732,435.00692 241.9324,440.91295 C 244.82286,443.52918 276.31775,684.54728 277.13163,685.36116 C 279.15193,687.38148 298.18783,693.51995 307.35038,695.11116 C 324.26646,698.04887 327.34811,698.11379 331.53788,695.61116 C 337.18487,692.23811 341.68278,687.67856 342.28788,684.73616 C 342.58181,683.30694 355.50549,514.00581 361.94413,468.75721 C 365.25427,445.49465 366.9866,440.32078 372.78788,436.47596 C 376.05402,434.3113 380.76075,433.26603 394.28788,432.78846 C 407.815,432.31088 421.66802,431.85883 430.85038,431.00721 C 440.03276,430.15558 455.53788,427.50239 455.53788,409.63221 C 455.53788,391.76203 440.03276,389.07757 430.85038,388.22596 C 421.66802,387.37434 407.815,386.95352 394.28788,386.47596 C 380.76075,385.99839 376.05402,384.92185 372.78788,382.75721 C 366.9866,378.91239 365.25427,373.73853 361.94413,350.47596 C 355.50549,305.22736 342.58181,135.92624 342.28788,134.497 C 341.68278,131.55461 337.18487,126.99506 331.53788,123.622 C 329.443,122.37068 327.63337,121.7705 324.22538,121.84075 z "
           id="use3143"
           sodipodi:nodetypes="cssssscsssscssssssssssssssssssc" />
      </g>
      <path
         style="fill:#666666;fill-opacity:1;stroke:none;stroke-opacity:1"
         d="M 334.375,68.864798 C 330.96701,68.93505 325.95804,69.677191 317.5,71.146048 C 308.33745,72.737253 289.30155,78.875739 287.28125,80.896048 C 286.46737,81.70993 254.97248,324.28951 252.08202,326.90574 C 245.55694,332.81177 224.05062,332.64427 165.75,337.53125 C 135.91564,340.03207 92.664942,342.71876 91.574232,342.56199 C 89.754392,342.30041 89.042252,338.74684 82.917982,299.43699 C 79.694252,283.17985 75.835559,278.91878 68.324232,275.71824 C 61.775524,272.92787 30.049973,274.38941 21.490684,279.18699 C 11.924898,284.54872 11.924898,430.29401 21.490684,435.65574 C 30.049973,440.45333 61.775524,441.91486 68.324232,439.12449 C 75.835559,435.92396 79.694252,431.66288 82.917982,415.40574 C 89.042252,376.09589 89.754392,372.54232 91.574232,372.28074 C 92.664942,372.12395 135.91564,373.24918 165.75,375.75 C 224.05062,380.63696 245.55694,382.03096 252.08202,387.93699 C 254.97248,390.55322 286.46737,631.57132 287.28125,632.3852 C 289.30155,634.40552 308.33745,640.54399 317.5,642.1352 C 334.41608,645.07291 337.49773,645.13783 341.6875,642.6352 C 347.33449,639.26215 351.8324,634.7026 352.4375,631.7602 C 352.73143,630.33098 365.65511,461.02985 372.09375,415.78125 C 375.40389,392.51869 377.13622,387.34482 382.9375,383.5 C 386.20364,381.33534 390.91037,380.29007 404.4375,379.8125 C 417.96462,379.33492 431.81764,378.88287 441,378.03125 C 450.18238,377.17962 465.6875,374.52643 465.6875,356.65625 C 465.6875,338.78607 450.18238,336.10161 441,335.25 C 431.81764,334.39838 417.96462,333.97756 404.4375,333.5 C 390.91037,333.02243 386.20364,331.94589 382.9375,329.78125 C 377.13622,325.93643 375.40389,320.76257 372.09375,297.5 C 365.65511,252.2514 352.73143,82.950288 352.4375,81.521048 C 351.8324,78.57865 347.33449,74.019104 341.6875,70.646048 C 339.59262,69.394729 337.78299,68.794546 334.375,68.864798 z "
         id="use7271"
         sodipodi:nodetypes="cssssscsssscssssssssssssssssssc" />
    </g>
  </g>
</svg>
